<svg xmlns="http://www.w3.org/2000/svg" xmlns:xlink="http://www.w3.org/1999/xlink" width="150" 
zoomAndPan="magnify" viewBox="0 0 112.5 112.499997" height="150" preserveAspectRatio="xMidYMid meet" version="1.0">
<defs><g/></defs><g fill="#4438ca" fill-opacity="1"><g transform="translate(14.844726, 80.864253)"><g>
   
    <path d="M 20.765625 -14.796875 C 20.765625 -13.378906 20.425781 -12.148438 19.75 -11.109375 C 19.070312 -10.066406 18.117188 -9.265625 16.890625 -8.703125 C 15.660156 -8.140625 14.242188 -7.859375 12.640625 -7.859375 L 8.59375 -7.859375 C 8.363281 -7.859375 8.25 -7.75 8.25 -7.53125 L 8.25 -0.859375 C 8.25 -0.546875 8.164062 -0.320312 8 -0.1875 C 7.84375 -0.0625 7.597656 0 7.265625 0 L 2.296875 0 C 2.003906 0 1.800781 -0.0546875 1.6875 -0.171875 C 1.582031 -0.296875 1.53125 -0.484375 1.53125 -0.734375 L 1.53125 -21.25 C 1.53125 -21.695312 1.71875 -21.921875 2.09375 -21.921875 L 11.875 -21.921875 C 13.53125 -21.921875 15.03125 -21.648438 16.375 -21.109375 C 17.726562 -20.566406 18.796875 -19.765625 19.578125 -18.703125 C 20.367188 -17.640625 20.765625 -16.335938 20.765625 -14.796875 Z M 13.921875 -14.890625 C 13.921875 -15.578125 13.679688 -16.132812 13.203125 -16.5625 C 12.734375 -16.988281 12.15625 -17.203125 11.46875 -17.203125 L 8.921875 -17.203125 C 8.671875 -17.203125 8.492188 -17.148438 8.390625 -17.046875 C 8.296875 -16.953125 8.25 -16.796875 8.25 -16.578125 L 8.25 -13.234375 C 8.25 -12.992188 8.285156 -12.828125 8.359375 -12.734375 C 8.441406 -12.640625 8.570312 -12.59375 8.75 -12.59375 L 11.640625 -12.59375 C 12.328125 -12.59375 12.878906 -12.8125 13.296875 -13.25 C 13.710938 -13.695312 13.921875 -14.242188 13.921875 -14.890625 Z M 13.921875 -14.890625 "/></g></g></g><g fill="#4438ca" fill-opacity="1"><g transform="translate(36.441728, 80.864253)"><g><path d="M 1.53125 -21.25 C 1.53125 -21.457031 1.578125 -21.617188 1.671875 -21.734375 C 1.773438 -21.859375 1.914062 -21.921875 2.09375 -21.921875 L 7.71875 -21.921875 C 8.070312 -21.921875 8.25 -21.710938 8.25 -21.296875 L 8.25 -5.265625 C 8.25 -5.097656 8.269531 -4.984375 8.3125 -4.921875 C 8.363281 -4.867188 8.457031 -4.84375 8.59375 -4.84375 L 17.484375 -4.84375 C 17.941406 -4.84375 18.171875 -4.65625 18.171875 -4.28125 L 18.171875 -0.65625 C 18.171875 -0.457031 18.101562 -0.296875 17.96875 -0.171875 C 17.84375 -0.0546875 17.664062 0 17.4375 0 L 2.328125 0 C 2.035156 0 1.828125 -0.0546875 1.703125 -0.171875 C 1.585938 -0.296875 1.53125 -0.484375 1.53125 -0.734375 Z M 1.53125 -21.25 "/></g></g></g><g fill="#4438ca" fill-opacity="1"><g transform="translate(55.438816, 80.864253)"><g><path d="M 20.203125 -8.65625 C 20.203125 -5.425781 19.382812 -3.125 17.75 -1.75 C 16.125 -0.382812 13.789062 0.296875 10.75 0.296875 C 7.34375 0.296875 4.914062 -0.488281 3.46875 -2.0625 C 2.019531 -3.644531 1.296875 -6.039062 1.296875 -9.25 L 1.296875 -21.25 C 1.296875 -21.457031 1.34375 -21.617188 1.4375 -21.734375 C 1.539062 -21.859375 1.679688 -21.921875 1.859375 -21.921875 L 7.46875 -21.921875 C 7.820312 -21.921875 8 -21.710938 8 -21.296875 L 8 -8.546875 C 8 -7.085938 8.28125 -6.03125 8.84375 -5.375 C 9.40625 -4.726562 10.207031 -4.40625 11.25 -4.40625 C 12.28125 -4.40625 13.109375 -4.726562 13.734375 -5.375 C 14.367188 -6.03125 14.6875 -7.113281 14.6875 -8.625 L 14.6875 -21.25 C 14.6875 -21.695312 14.875 -21.921875 15.25 -21.921875 L 19.671875 -21.921875 C 20.023438 -21.921875 20.203125 -21.710938 20.203125 -21.296875 Z M 20.203125 -8.65625 "/></g></g></g><g fill="#4438ca" fill-opacity="1"><g transform="translate(76.947186, 80.864253)"><g><path d="M 14.59375 -16.046875 C 14.125 -16.554688 13.617188 -16.945312 13.078125 -17.21875 C 12.535156 -17.5 11.75 -17.640625 10.71875 -17.640625 C 9.695312 -17.640625 8.941406 -17.488281 8.453125 -17.1875 C 7.960938 -16.894531 7.71875 -16.539062 7.71875 -16.125 C 7.71875 -15.414062 8.347656 -14.914062 9.609375 -14.625 L 14.5 -13.359375 C 16.300781 -12.898438 17.65625 -12.101562 18.5625 -10.96875 C 19.46875 -9.84375 19.921875 -8.488281 19.921875 -6.90625 C 19.921875 -5.457031 19.535156 -4.191406 18.765625 -3.109375 C 17.992188 -2.023438 16.894531 -1.1875 15.46875 -0.59375 C 14.039062 0 12.367188 0.296875 10.453125 0.296875 C 8.285156 0.296875 6.3125 -0.0625 4.53125 -0.78125 C 2.75 -1.5 1.515625 -2.441406 0.828125 -3.609375 C 0.722656 -3.804688 0.671875 -3.953125 0.671875 -4.046875 C 0.671875 -4.242188 0.78125 -4.421875 1 -4.578125 L 4.046875 -6.671875 C 4.265625 -6.816406 4.460938 -6.890625 4.640625 -6.890625 C 4.859375 -6.890625 5.035156 -6.800781 5.171875 -6.625 C 5.835938 -5.75 6.515625 -5.132812 7.203125 -4.78125 C 7.898438 -4.425781 8.816406 -4.25 9.953125 -4.25 C 11.054688 -4.25 11.925781 -4.398438 12.5625 -4.703125 C 13.207031 -5.015625 13.53125 -5.4375 13.53125 -5.96875 C 13.53125 -6.34375 13.375 -6.664062 13.0625 -6.9375 C 12.75 -7.21875 12.285156 -7.425781 11.671875 -7.5625 L 7.1875 -8.65625 C 5.40625 -9.09375 3.992188 -9.90625 2.953125 -11.09375 C 1.910156 -12.28125 1.390625 -13.65625 1.390625 -15.21875 C 1.390625 -16.5 1.765625 -17.675781 2.515625 -18.75 C 3.265625 -19.820312 4.328125 -20.664062 5.703125 -21.28125 C 7.078125 -21.90625 8.671875 -22.21875 10.484375 -22.21875 C 12.253906 -22.21875 13.898438 -21.925781 15.421875 -21.34375 C 16.941406 -20.757812 18.035156 -19.988281 18.703125 -19.03125 C 18.835938 -18.851562 18.90625 -18.6875 18.90625 -18.53125 C 18.90625 -18.382812 18.835938 -18.253906 18.703125 -18.140625 L 15.484375 -15.8125 C 15.378906 -15.726562 15.269531 -15.6875 15.15625 -15.6875 C 15.019531 -15.6875 14.832031 -15.804688 14.59375 -16.046875 Z M 14.59375 -16.046875 "/></g></g></g><g fill="#ffffff" fill-opacity="1"><g transform="translate(14.480164, 54.826665)"><g><path d="M 9.9375 -10 C 9.78125 -10 9.648438 -9.945312 9.546875 -9.84375 C 9.441406 -9.75 9.390625 -9.632812 9.390625 -9.5 L 9.390625 -0.96875 C 9.390625 -0.613281 9.300781 -0.363281 9.125 -0.21875 C 8.945312 -0.0703125 8.664062 0 8.28125 0 L 2.65625 0 C 2.320312 0 2.085938 -0.0664062 1.953125 -0.203125 C 1.816406 -0.335938 1.75 -0.550781 1.75 -0.84375 L 1.75 -24.203125 C 1.75 -24.453125 1.804688 -24.644531 1.921875 -24.78125 C 2.035156 -24.914062 2.191406 -24.984375 2.390625 -24.984375 L 8.78125 -24.984375 C 8.96875 -24.984375 9.113281 -24.921875 9.21875 -24.796875 C 9.332031 -24.671875 9.390625 -24.5 9.390625 -24.28125 L 9.390625 -16.46875 C 9.390625 -16.019531 9.59375 -15.796875 10 -15.796875 L 15.65625 -15.796875 C 16.0625 -15.796875 16.265625 -16.019531 16.265625 -16.46875 L 16.265625 -24.28125 C 16.265625 -24.5 16.316406 -24.671875 16.421875 -24.796875 C 16.535156 -24.921875 16.6875 -24.984375 16.875 -24.984375 L 23.265625 -24.984375 C 23.460938 -24.984375 23.617188 -24.914062 23.734375 -24.78125 C 23.847656 -24.644531 23.90625 -24.453125 23.90625 -24.203125 L 23.90625 -0.84375 C 23.90625 -0.550781 23.835938 -0.335938 23.703125 -0.203125 C 23.566406 -0.0664062 23.332031 0 23 0 L 17.375 0 C 16.988281 0 16.707031 -0.0703125 16.53125 -0.21875 C 16.351562 -0.363281 16.265625 -0.613281 16.265625 -0.96875 L 16.265625 -9.5 C 16.265625 -9.632812 16.210938 -9.75 16.109375 -9.84375 C 16.003906 -9.945312 15.875 -10 15.71875 -10 Z M 9.9375 -10 "/></g></g></g><g fill="#ffffff" fill-opacity="1"><g transform="translate(40.135089, 54.826665)"><g><path d="M 8.78125 -24.984375 C 9.1875 -24.984375 9.390625 -24.75 9.390625 -24.28125 L 9.390625 -0.96875 C 9.390625 -0.613281 9.300781 -0.363281 9.125 -0.21875 C 8.945312 -0.0703125 8.664062 0 8.28125 0 L 2.65625 0 C 2.320312 0 2.085938 -0.0664062 1.953125 -0.203125 C 1.816406 -0.335938 1.75 -0.550781 1.75 -0.84375 L 1.75 -24.203125 C 1.75 -24.453125 1.804688 -24.644531 1.921875 -24.78125 C 2.035156 -24.914062 2.191406 -24.984375 2.390625 -24.984375 Z M 8.78125 -24.984375 "/></g></g></g><g fill="#ffffff" fill-opacity="1"><g transform="translate(51.279155, 54.826665)"><g><path d="M 23.609375 -1.078125 C 23.648438 -0.984375 23.671875 -0.859375 23.671875 -0.703125 C 23.671875 -0.503906 23.609375 -0.335938 23.484375 -0.203125 C 23.359375 -0.0664062 23.195312 0 23 0 L 16.46875 0 C 16 0 15.695312 -0.234375 15.5625 -0.703125 L 12.390625 -9.390625 C 12.328125 -9.566406 12.210938 -9.703125 12.046875 -9.796875 C 11.890625 -9.890625 11.65625 -9.9375 11.34375 -9.9375 L 9.796875 -9.9375 C 9.660156 -9.9375 9.554688 -9.890625 9.484375 -9.796875 C 9.421875 -9.703125 9.390625 -9.625 9.390625 -9.5625 L 9.390625 -0.96875 C 9.390625 -0.613281 9.300781 -0.363281 9.125 -0.21875 C 8.945312 -0.0703125 8.664062 0 8.28125 0 L 2.625 0 C 2.289062 0 2.0625 -0.0664062 1.9375 -0.203125 C 1.8125 -0.335938 1.75 -0.550781 1.75 -0.84375 L 1.75 -24.203125 C 1.75 -24.722656 1.960938 -24.984375 2.390625 -24.984375 L 13.640625 -24.984375 C 16.890625 -24.984375 19.410156 -24.359375 21.203125 -23.109375 C 23.003906 -21.867188 23.90625 -20.113281 23.90625 -17.84375 C 23.90625 -16.289062 23.492188 -14.910156 22.671875 -13.703125 C 21.859375 -12.492188 20.800781 -11.640625 19.5 -11.140625 C 19.363281 -11.078125 19.296875 -10.96875 19.296875 -10.8125 C 19.296875 -10.738281 19.316406 -10.632812 19.359375 -10.5 Z M 13.328125 -14.953125 C 14.179688 -14.953125 14.835938 -15.171875 15.296875 -15.609375 C 15.765625 -16.046875 16 -16.632812 16 -17.375 C 16 -18.207031 15.722656 -18.851562 15.171875 -19.3125 C 14.617188 -19.769531 13.9375 -20 13.125 -20 L 10.171875 -20 C 9.878906 -20 9.675781 -19.945312 9.5625 -19.84375 C 9.445312 -19.75 9.390625 -19.578125 9.390625 -19.328125 L 9.390625 -15.65625 C 9.390625 -15.40625 9.425781 -15.222656 9.5 -15.109375 C 9.582031 -15.003906 9.738281 -14.953125 9.96875 -14.953125 Z M 13.328125 -14.953125 "/></g></g></g><g fill="#ffffff" fill-opacity="1"><g transform="translate(76.159711, 54.826665)"><g><path d="M 1.75 -24.203125 C 1.75 -24.722656 1.960938 -24.984375 2.390625 -24.984375 L 20.578125 -24.984375 C 20.972656 -24.984375 21.171875 -24.75 21.171875 -24.28125 L 21.140625 -20.375 C 21.140625 -19.769531 20.847656 -19.46875 20.265625 -19.46875 L 10.171875 -19.46875 C 9.648438 -19.46875 9.390625 -19.253906 9.390625 -18.828125 L 9.390625 -15.953125 C 9.390625 -15.734375 9.445312 -15.5625 9.5625 -15.4375 C 9.675781 -15.3125 9.820312 -15.25 10 -15.25 L 16.0625 -15.25 C 16.53125 -15.25 16.765625 -15.023438 16.765625 -14.578125 L 16.765625 -10.40625 C 16.765625 -10.019531 16.5625 -9.828125 16.15625 -9.828125 L 9.9375 -9.828125 C 9.78125 -9.828125 9.648438 -9.78125 9.546875 -9.6875 C 9.441406 -9.601562 9.390625 -9.492188 9.390625 -9.359375 L 9.390625 -6 C 9.390625 -5.8125 9.414062 -5.679688 9.46875 -5.609375 C 9.53125 -5.546875 9.640625 -5.515625 9.796875 -5.515625 L 20.734375 -5.515625 C 21.234375 -5.515625 21.484375 -5.300781 21.484375 -4.875 L 21.484375 -0.734375 C 21.484375 -0.515625 21.414062 -0.335938 21.28125 -0.203125 C 21.144531 -0.0664062 20.941406 0 20.671875 0 L 2.65625 0 C 2.320312 0 2.085938 -0.0664062 1.953125 -0.203125 C 1.816406 -0.335938 1.75 -0.550781 1.75 -0.84375 Z M 1.75 -24.203125 "/></g></g></g>
    </svg>